<?xml version="1.0" standalone="no"?>
<!DOCTYPE svg PUBLIC "-//W3C//DTD SVG 20010904//EN"
 "http://www.w3.org/TR/2001/REC-SVG-20010904/DTD/svg10.dtd">
<svg version="1.0" xmlns="http://www.w3.org/2000/svg"
 width="840.000000pt" height="840.000000pt" viewBox="0 0 840.000000 840.000000"
 preserveAspectRatio="xMidYMid meet">
<metadata>
Created by potrace 1.11, written by Peter Selinger 2001-2013
</metadata>
<g transform="translate(0.000000,840.000000) scale(0.100000,-0.100000)"
fill="#000000" stroke="none">
<path d="M3987 8394 c-1 -1 -45 -5 -97 -8 -52 -4 -106 -9 -120 -11 -14 -3 -50
-7 -80 -10 -66 -6 -147 -18 -195 -28 -24 -5 -104 -20 -125 -22 -8 -1 -46 -10
-85 -19 -38 -10 -77 -19 -85 -21 -13 -3 -153 -40 -185 -49 -73 -20 -299 -98
-340 -116 -11 -5 -38 -16 -60 -25 -79 -31 -100 -41 -246 -112 -211 -102 -412
-221 -602 -356 -39 -27 -258 -197 -273 -211 -6 -6 -44 -40 -85 -76 -170 -151
-343 -336 -527 -565 -29 -36 -167 -229 -187 -262 -154 -248 -173 -282 -259
-458 -79 -163 -88 -182 -127 -280 -120 -306 -213 -647 -254 -935 -3 -25 -8
-56 -10 -70 -11 -79 -15 -113 -21 -190 -3 -47 -8 -103 -10 -125 -5 -52 -5
-413 1 -485 10 -148 16 -217 19 -240 3 -14 7 -47 10 -75 14 -115 59 -342 96
-490 97 -382 265 -783 476 -1132 43 -70 80 -130 84 -133 3 -3 17 -23 30 -45
14 -22 30 -47 37 -55 6 -8 45 -60 86 -115 288 -385 723 -788 1103 -1020 327
-199 537 -301 856 -415 114 -41 359 -113 443 -130 28 -6 59 -12 70 -15 63 -15
237 -45 360 -61 268 -36 712 -38 990 -5 175 21 247 32 335 51 25 5 56 12 70
14 14 2 63 14 110 25 47 12 92 23 101 25 50 13 178 52 269 83 165 56 280 103
508 210 20 9 93 48 162 86 1000 553 1741 1498 2030 2590 16 61 32 123 34 137
3 14 10 45 17 70 6 25 12 59 15 75 2 17 8 53 13 80 12 57 20 113 27 170 2 22
6 56 9 75 20 125 28 666 13 840 -8 91 -27 249 -33 270 -2 8 -7 35 -10 60 -5
36 -25 143 -50 260 -24 117 -118 428 -155 515 -5 11 -30 72 -55 135 -48 120
-172 378 -213 443 -13 22 -35 60 -49 85 -42 76 -163 259 -241 364 -204 276
-481 566 -737 771 -95 76 -137 108 -180 138 -27 18 -52 36 -55 39 -3 3 -39 27
-80 54 -41 27 -86 57 -100 66 -79 53 -443 250 -463 250 -3 0 -43 17 -89 39
-164 76 -530 201 -668 227 -14 3 -43 10 -65 16 -49 12 -72 18 -105 22 -14 2
-63 11 -110 20 -81 14 -111 19 -205 31 -178 22 -266 27 -508 29 -125 1 -229 1
-230 0z"/>
</g>
</svg>
